<svg width="1280" height="720" xmlns="http://www.w3.org/2000/svg" xmlns:xlink="http://www.w3.org/1999/xlink" overflow="hidden"><defs><filter id="fx0" x="-10%" y="-10%" width="120%" height="120%" filterUnits="userSpaceOnUse" primitiveUnits="userSpaceOnUse"><feComponentTransfer color-interpolation-filters="sRGB"><feFuncR type="discrete" tableValues="0 0"/><feFuncG type="discrete" tableValues="0 0"/><feFuncB type="discrete" tableValues="0 0"/><feFuncA type="linear" slope="0.4" intercept="0"/></feComponentTransfer><feGaussianBlur stdDeviation="1.77778 1.77778"/></filter><filter id="fx1" x="-10%" y="-10%" width="120%" height="120%" filterUnits="userSpaceOnUse" primitiveUnits="userSpaceOnUse"><feComponentTransfer color-interpolation-filters="sRGB"><feFuncR type="discrete" tableValues="0 0"/><feFuncG type="discrete" tableValues="0 0"/><feFuncB type="discrete" tableValues="0 0"/><feFuncA type="linear" slope="0.4" intercept="0"/></feComponentTransfer><feGaussianBlur stdDeviation="1.77778 1.77778"/></filter><filter id="fx2" x="-10%" y="-10%" width="120%" height="120%" filterUnits="userSpaceOnUse" primitiveUnits="userSpaceOnUse"><feComponentTransfer color-interpolation-filters="sRGB"><feFuncR type="discrete" tableValues="0 0"/><feFuncG type="discrete" tableValues="0 0"/><feFuncB type="discrete" tableValues="0 0"/><feFuncA type="linear" slope="0.4" intercept="0"/></feComponentTransfer><feGaussianBlur stdDeviation="1.77778 1.77778"/></filter><filter id="fx3" x="-10%" y="-10%" width="120%" height="120%" filterUnits="userSpaceOnUse" primitiveUnits="userSpaceOnUse"><feComponentTransfer color-interpolation-filters="sRGB"><feFuncR type="discrete" tableValues="0 0"/><feFuncG type="discrete" tableValues="0 0"/><feFuncB type="discrete" tableValues="0 0"/><feFuncA type="linear" slope="0.4" intercept="0"/></feComponentTransfer><feGaussianBlur stdDeviation="1.77778 1.77778"/></filter><filter id="fx4" x="-10%" y="-10%" width="120%" height="120%" filterUnits="userSpaceOnUse" primitiveUnits="userSpaceOnUse"><feComponentTransfer color-interpolation-filters="sRGB"><feFuncR type="discrete" tableValues="0 0"/><feFuncG type="discrete" tableValues="0 0"/><feFuncB type="discrete" tableValues="0 0"/><feFuncA type="linear" slope="0.4" intercept="0"/></feComponentTransfer><feGaussianBlur stdDeviation="1.77778 1.77778"/></filter><filter id="fx5" x="-10%" y="-10%" width="120%" height="120%" filterUnits="userSpaceOnUse" primitiveUnits="userSpaceOnUse"><feComponentTransfer color-interpolation-filters="sRGB"><feFuncR type="discrete" tableValues="0 0"/><feFuncG type="discrete" tableValues="0 0"/><feFuncB type="discrete" tableValues="0 0"/><feFuncA type="linear" slope="0.4" intercept="0"/></feComponentTransfer><feGaussianBlur stdDeviation="1.77778 1.77778"/></filter><filter id="fx6" x="-10%" y="-10%" width="120%" height="120%" filterUnits="userSpaceOnUse" primitiveUnits="userSpaceOnUse"><feComponentTransfer color-interpolation-filters="sRGB"><feFuncR type="discrete" tableValues="0 0"/><feFuncG type="discrete" tableValues="0 0"/><feFuncB type="discrete" tableValues="0 0"/><feFuncA type="linear" slope="0.4" intercept="0"/></feComponentTransfer><feGaussianBlur stdDeviation="1.77778 1.77778"/></filter><filter id="fx7" x="-10%" y="-10%" width="120%" height="120%" filterUnits="userSpaceOnUse" primitiveUnits="userSpaceOnUse"><feComponentTransfer color-interpolation-filters="sRGB"><feFuncR type="discrete" tableValues="0 0"/><feFuncG type="discrete" tableValues="0 0"/><feFuncB type="discrete" tableValues="0 0"/><feFuncA type="linear" slope="0.4" intercept="0"/></feComponentTransfer><feGaussianBlur stdDeviation="1.77778 1.77778"/></filter><filter id="fx8" x="-10%" y="-10%" width="120%" height="120%" filterUnits="userSpaceOnUse" primitiveUnits="userSpaceOnUse"><feComponentTransfer color-interpolation-filters="sRGB"><feFuncR type="discrete" tableValues="0 0"/><feFuncG type="discrete" tableValues="0 0"/><feFuncB type="discrete" tableValues="0 0"/><feFuncA type="linear" slope="0.4" intercept="0"/></feComponentTransfer><feGaussianBlur stdDeviation="1.77778 1.77778"/></filter><filter id="fx9" x="-10%" y="-10%" width="120%" height="120%" filterUnits="userSpaceOnUse" primitiveUnits="userSpaceOnUse"><feComponentTransfer color-interpolation-filters="sRGB"><feFuncR type="discrete" tableValues="0 0"/><feFuncG type="discrete" tableValues="0 0"/><feFuncB type="discrete" tableValues="0 0"/><feFuncA type="linear" slope="0.4" intercept="0"/></feComponentTransfer><feGaussianBlur stdDeviation="1.77778 1.77778"/></filter><filter id="fx10" x="-10%" y="-10%" width="120%" height="120%" filterUnits="userSpaceOnUse" primitiveUnits="userSpaceOnUse"><feComponentTransfer color-interpolation-filters="sRGB"><feFuncR type="discrete" tableValues="0 0"/><feFuncG type="discrete" tableValues="0 0"/><feFuncB type="discrete" tableValues="0 0"/><feFuncA type="linear" slope="0.4" intercept="0"/></feComponentTransfer><feGaussianBlur stdDeviation="1.77778 1.77778"/></filter><filter id="fx11" x="-10%" y="-10%" width="120%" height="120%" filterUnits="userSpaceOnUse" primitiveUnits="userSpaceOnUse"><feComponentTransfer color-interpolation-filters="sRGB"><feFuncR type="discrete" tableValues="0 0"/><feFuncG type="discrete" tableValues="0 0"/><feFuncB type="discrete" tableValues="0 0"/><feFuncA type="linear" slope="0.4" intercept="0"/></feComponentTransfer><feGaussianBlur stdDeviation="1.77778 1.77778"/></filter><filter id="fx12" x="-10%" y="-10%" width="120%" height="120%" filterUnits="userSpaceOnUse" primitiveUnits="userSpaceOnUse"><feComponentTransfer color-interpolation-filters="sRGB"><feFuncR type="discrete" tableValues="0 0"/><feFuncG type="discrete" tableValues="0 0"/><feFuncB type="discrete" tableValues="0 0"/><feFuncA type="linear" slope="0.4" intercept="0"/></feComponentTransfer><feGaussianBlur stdDeviation="1.77778 1.77778"/></filter><filter id="fx13" x="-10%" y="-10%" width="120%" height="120%" filterUnits="userSpaceOnUse" primitiveUnits="userSpaceOnUse"><feComponentTransfer color-interpolation-filters="sRGB"><feFuncR type="discrete" tableValues="0 0"/><feFuncG type="discrete" tableValues="0 0"/><feFuncB type="discrete" tableValues="0 0"/><feFuncA type="linear" slope="0.4" intercept="0"/></feComponentTransfer><feGaussianBlur stdDeviation="1.77778 1.77778"/></filter><filter id="fx14" x="-10%" y="-10%" width="120%" height="120%" filterUnits="userSpaceOnUse" primitiveUnits="userSpaceOnUse"><feComponentTransfer color-interpolation-filters="sRGB"><feFuncR type="discrete" tableValues="0 0"/><feFuncG type="discrete" tableValues="0 0"/><feFuncB type="discrete" tableValues="0 0"/><feFuncA type="linear" slope="0.4" intercept="0"/></feComponentTransfer><feGaussianBlur stdDeviation="1.77778 1.77778"/></filter><filter id="fx15" x="-10%" y="-10%" width="120%" height="120%" filterUnits="userSpaceOnUse" primitiveUnits="userSpaceOnUse"><feComponentTransfer color-interpolation-filters="sRGB"><feFuncR type="discrete" tableValues="0 0"/><feFuncG type="discrete" tableValues="0 0"/><feFuncB type="discrete" tableValues="0 0"/><feFuncA type="linear" slope="0.4" intercept="0"/></feComponentTransfer><feGaussianBlur stdDeviation="1.77778 1.77778"/></filter><filter id="fx16" x="-10%" y="-10%" width="120%" height="120%" filterUnits="userSpaceOnUse" primitiveUnits="userSpaceOnUse"><feComponentTransfer color-interpolation-filters="sRGB"><feFuncR type="discrete" tableValues="0 0"/><feFuncG type="discrete" tableValues="0 0"/><feFuncB type="discrete" tableValues="0 0"/><feFuncA type="linear" slope="0.4" intercept="0"/></feComponentTransfer><feGaussianBlur stdDeviation="1.77778 1.77778"/></filter><filter id="fx17" x="-10%" y="-10%" width="120%" height="120%" filterUnits="userSpaceOnUse" primitiveUnits="userSpaceOnUse"><feComponentTransfer color-interpolation-filters="sRGB"><feFuncR type="discrete" tableValues="0 0"/><feFuncG type="discrete" tableValues="0 0"/><feFuncB type="discrete" tableValues="0 0"/><feFuncA type="linear" slope="0.4" intercept="0"/></feComponentTransfer><feGaussianBlur stdDeviation="1.77778 1.77778"/></filter><filter id="fx18" x="-10%" y="-10%" width="120%" height="120%" filterUnits="userSpaceOnUse" primitiveUnits="userSpaceOnUse"><feComponentTransfer color-interpolation-filters="sRGB"><feFuncR type="discrete" tableValues="0 0"/><feFuncG type="discrete" tableValues="0 0"/><feFuncB type="discrete" tableValues="0 0"/><feFuncA type="linear" slope="0.4" intercept="0"/></feComponentTransfer><feGaussianBlur stdDeviation="1.77778 1.77778"/></filter><linearGradient x1="158.311" y1="157.109" x2="34.6888" y2="-13.1092" gradientUnits="userSpaceOnUse" spreadMethod="reflect" id="fill19"><stop offset="0" stop-color="#70AD47"/><stop offset="0.21" stop-color="#C7D5ED" stop-opacity="0"/><stop offset="1" stop-color="#C7D5ED" stop-opacity="0"/></linearGradient><linearGradient x1="350.311" y1="161.109" x2="226.689" y2="-9.10921" gradientUnits="userSpaceOnUse" spreadMethod="reflect" id="fill20"><stop offset="0" stop-color="#70AD47"/><stop offset="0.21" stop-color="#C7D5ED" stop-opacity="0"/><stop offset="1" stop-color="#C7D5ED" stop-opacity="0"/></linearGradient><linearGradient x1="158.311" y1="157.109" x2="34.6888" y2="-13.1092" gradientUnits="userSpaceOnUse" spreadMethod="reflect" id="fill21"><stop offset="0" stop-color="#70AD47"/><stop offset="0.21" stop-color="#C7D5ED" stop-opacity="0"/><stop offset="1" stop-color="#C7D5ED" stop-opacity="0"/></linearGradient><linearGradient x1="758.311" y1="161.109" x2="634.689" y2="-9.10921" gradientUnits="userSpaceOnUse" spreadMethod="reflect" id="fill22"><stop offset="0" stop-color="#70AD47"/><stop offset="0.21" stop-color="#C7D5ED" stop-opacity="0"/><stop offset="1" stop-color="#C7D5ED" stop-opacity="0"/></linearGradient><linearGradient x1="187.103" y1="175.183" x2="81.897" y2="-31.1828" gradientUnits="userSpaceOnUse" spreadMethod="reflect" id="fill23"><stop offset="0" stop-color="#70AD47"/><stop offset="0.21" stop-color="#C7D5ED" stop-opacity="0"/><stop offset="1" stop-color="#C7D5ED" stop-opacity="0"/></linearGradient><linearGradient x1="1184.1" y1="179.183" x2="1078.9" y2="-27.1828" gradientUnits="userSpaceOnUse" spreadMethod="reflect" id="fill24"><stop offset="0" stop-color="#70AD47"/><stop offset="0.21" stop-color="#C7D5ED" stop-opacity="0"/><stop offset="1" stop-color="#C7D5ED" stop-opacity="0"/></linearGradient><linearGradient x1="403.862" y1="403.629" x2="35.1378" y2="-17.6289" gradientUnits="userSpaceOnUse" spreadMethod="reflect" id="fill25"><stop offset="0" stop-color="#70AD47"/><stop offset="0.17" stop-color="#C7D5ED" stop-opacity="0"/><stop offset="1" stop-color="#C7D5ED" stop-opacity="0"/></linearGradient><linearGradient x1="1230.86" y1="733.629" x2="862.138" y2="312.371" gradientUnits="userSpaceOnUse" spreadMethod="reflect" id="fill26"><stop offset="0" stop-color="#70AD47"/><stop offset="0.17" stop-color="#C7D5ED" stop-opacity="0"/><stop offset="1" stop-color="#C7D5ED" stop-opacity="0"/></linearGradient></defs><g><rect x="0" y="0" width="1280" height="720" fill="#262626"/><g filter="url(#fx0)" transform="translate(1 0)"><g><path d="M7 18.7069C7 12.2414 12.2414 7 18.707 7L174.293 7C180.759 7 186 12.2414 186 18.7069L186 697.293C186 703.759 180.759 709 174.293 709L18.707 709C12.2414 709 7 703.759 7 697.293Z" fill="#222A35" fill-rule="evenodd"/></g></g><path d="M4 18.7069C4 12.2414 9.24138 7 15.707 7L171.293 7C177.759 7 183 12.2414 183 18.7069L183 697.293C183 703.759 177.759 709 171.293 709L15.707 709C9.24138 709 4 703.759 4 697.293Z" fill="#222A35" fill-rule="evenodd"/><g filter="url(#fx1)" transform="translate(18 14)"><g><path d="M7 16.5484C7 11.275 11.275 7 16.5484 7L155.452 7C160.725 7 165 11.275 165 16.5484L165 143.452C165 148.725 160.725 153 155.452 153L16.5484 153C11.275 153 7 148.725 7 143.452Z" fill="#70AD47" fill-rule="evenodd"/></g></g><path d="M21 30.5484C21 25.275 25.275 21 30.5484 21L169.452 21C174.725 21 179 25.275 179 30.5484L179 157.452C179 162.725 174.725 167 169.452 167L30.5484 167C25.275 167 21 162.725 21 157.452Z" fill="#70AD47" fill-rule="evenodd"/><text fill="#FFFFFF" font-family="Calibri,Calibri_MSFontService,sans-serif" font-weight="700" font-size="37" transform="translate(32.6344 59)">Data</text><text fill="#FFFFFF" font-family="Calibri,Calibri_MSFontService,sans-serif" font-weight="700" font-size="37" transform="translate(105.421 59)">-</text><text fill="#FFFFFF" font-family="Calibri,Calibri_MSFontService,sans-serif" font-weight="700" font-size="37" transform="translate(116.921 59)">Viz</text><text font-family="Book Antiqua,Book Antiqua_MSFontService,sans-serif" font-weight="400" font-size="27" transform="translate(38.111 89)">Challenge</text><g filter="url(#fx2)" transform="translate(197 4)"><g><path d="M7 15.5019C7 10.8064 10.8064 7 15.5019 7L177.498 7C182.194 7 186 10.8064 186 15.5019L186 128.498C186 133.194 182.194 137 177.498 137L15.5019 137C10.8064 137 7 133.194 7 128.498Z" fill="#222A35" fill-rule="evenodd"/></g></g><path d="M200 19.5019C200 14.8064 203.806 11 208.502 11L370.498 11C375.194 11 379 14.8064 379 19.5019L379 132.498C379 137.194 375.194 141 370.498 141L208.502 141C203.806 141 200 137.194 200 132.498Z" fill="#222A35" fill-rule="evenodd"/><g filter="url(#fx3)" transform="translate(401 4)"><g><path d="M7 15.5019C7 10.8064 10.8064 7 15.5019 7L177.498 7C182.194 7 186 10.8064 186 15.5019L186 128.498C186 133.194 182.194 137 177.498 137L15.5019 137C10.8064 137 7 133.194 7 128.498Z" fill="#4C5F78" fill-rule="evenodd"/></g></g><path d="M404 19.5019C404 14.8064 407.806 11 412.502 11L574.498 11C579.194 11 583 14.8064 583 19.5019L583 132.498C583 137.194 579.194 141 574.498 141L412.502 141C407.806 141 404 137.194 404 132.498Z" fill="#4C5F78" fill-rule="evenodd"/><g filter="url(#fx4)" transform="translate(807 4)"><g><path d="M7 15.5019C7 10.8064 10.8064 7 15.5019 7L177.498 7C182.194 7 186 10.8064 186 15.5019L186 128.498C186 133.194 182.194 137 177.498 137L15.5019 137C10.8064 137 7 133.194 7 128.498Z" fill="#4C5F78" fill-rule="evenodd"/></g></g><path d="M810 19.5019C810 14.8064 813.806 11 818.502 11L980.498 11C985.194 11 989 14.8064 989 19.5019L989 132.498C989 137.194 985.194 141 980.498 141L818.502 141C813.806 141 810 137.194 810 132.498Z" fill="#4C5F78" fill-rule="evenodd"/><g filter="url(#fx5)" transform="translate(197 160)"><g><path d="M7 26.1622C7 15.5792 15.5792 7 26.1621 7L370.838 7C381.421 7 390 15.5792 390 26.1622L390 280.838C390 291.421 381.421 300 370.838 300L26.1621 300C15.5792 300 7 291.421 7 280.838Z" fill="#222A35" fill-rule="evenodd"/></g></g><path d="M200 186.162C200 175.579 208.579 167 219.162 167L563.838 167C574.421 167 583 175.579 583 186.162L583 440.838C583 451.421 574.421 460 563.838 460L219.162 460C208.579 460 200 451.421 200 440.838Z" fill="#222A35" fill-rule="evenodd"/><g filter="url(#fx6)" transform="translate(196 4)"><g><path d="M7 15.5019C7 10.8064 10.8064 7 15.5019 7L177.498 7C182.194 7 186 10.8064 186 15.5019L186 128.498C186 133.194 182.194 137 177.498 137L15.5019 137C10.8064 137 7 133.194 7 128.498Z" fill="#222A35" fill-rule="evenodd"/></g></g><path d="M199 19.5019C199 14.8064 202.806 11 207.502 11L369.498 11C374.194 11 378 14.8064 378 19.5019L378 132.498C378 137.194 374.194 141 369.498 141L207.502 141C202.806 141 199 137.194 199 132.498Z" fill="#222A35" fill-rule="evenodd"/><g filter="url(#fx7)" transform="translate(196 4)"><g><path d="M7 15.5019C7 10.8064 10.8064 7 15.5019 7L177.498 7C182.194 7 186 10.8064 186 15.5019L186 128.498C186 133.194 182.194 137 177.498 137L15.5019 137C10.8064 137 7 133.194 7 128.498Z" fill="url(#fill19)" fill-rule="evenodd"/></g></g><path d="M199 19.5019C199 14.8064 202.806 11 207.502 11L369.498 11C374.194 11 378 14.8064 378 19.5019L378 132.498C378 137.194 374.194 141 369.498 141L207.502 141C202.806 141 199 137.194 199 132.498Z" fill="url(#fill20)" fill-rule="evenodd"/><g filter="url(#fx8)" transform="translate(604 4)"><g><path d="M7 15.5019C7 10.8064 10.8064 7 15.5019 7L177.498 7C182.194 7 186 10.8064 186 15.5019L186 128.498C186 133.194 182.194 137 177.498 137L15.5019 137C10.8064 137 7 133.194 7 128.498Z" fill="#222A35" fill-rule="evenodd"/></g></g><path d="M607 19.5019C607 14.8064 610.806 11 615.502 11L777.498 11C782.194 11 786 14.8064 786 19.5019L786 132.498C786 137.194 782.194 141 777.498 141L615.502 141C610.806 141 607 137.194 607 132.498Z" fill="#222A35" fill-rule="evenodd"/><g filter="url(#fx9)" transform="translate(604 4)"><g><path d="M7 15.5019C7 10.8064 10.8064 7 15.5019 7L177.498 7C182.194 7 186 10.8064 186 15.5019L186 128.498C186 133.194 182.194 137 177.498 137L15.5019 137C10.8064 137 7 133.194 7 128.498Z" fill="url(#fill21)" fill-rule="evenodd"/></g></g><path d="M607 19.5019C607 14.8064 610.806 11 615.502 11L777.498 11C782.194 11 786 14.8064 786 19.5019L786 132.498C786 137.194 782.194 141 777.498 141L615.502 141C610.806 141 607 137.194 607 132.498Z" fill="url(#fill22)" fill-rule="evenodd"/><g filter="url(#fx10)" transform="translate(1001 4)"><g><path d="M7 15.502C7 10.8065 10.8065 7 15.502 7L253.498 7C258.194 7 262 10.8065 262 15.502L262 128.498C262 133.194 258.194 137 253.498 137L15.502 137C10.8065 137 7 133.194 7 128.498Z" fill="#222A35" fill-rule="evenodd"/></g></g><path d="M1004 19.502C1004 14.8065 1007.81 11 1012.5 11L1250.5 11C1255.19 11 1259 14.8065 1259 19.502L1259 132.498C1259 137.194 1255.19 141 1250.5 141L1012.5 141C1007.81 141 1004 137.194 1004 132.498Z" fill="#222A35" fill-rule="evenodd"/><g filter="url(#fx11)" transform="translate(1001 4)"><g><path d="M7 15.502C7 10.8065 10.8065 7 15.502 7L253.498 7C258.194 7 262 10.8065 262 15.502L262 128.498C262 133.194 258.194 137 253.498 137L15.502 137C10.8065 137 7 133.194 7 128.498Z" fill="url(#fill23)" fill-rule="evenodd"/></g></g><path d="M1004 19.502C1004 14.8065 1007.81 11 1012.5 11L1250.5 11C1255.19 11 1259 14.8065 1259 19.502L1259 132.498C1259 137.194 1255.19 141 1250.5 141L1012.5 141C1007.81 141 1004 137.194 1004 132.498Z" fill="url(#fill24)" fill-rule="evenodd"/><g filter="url(#fx12)" transform="translate(606 328)"><g><path d="M7 14.9788C7 10.5723 10.5723 7 14.9788 7L203.021 7C207.428 7 211 10.5723 211 14.9788L211 121.021C211 125.428 207.428 129 203.021 129L14.9788 129C10.5723 129 7 125.428 7 121.021Z" fill="#70AD47" fill-rule="evenodd"/></g></g><path d="M609 342.979C609 338.572 612.572 335 616.979 335L805.021 335C809.428 335 813 338.572 813 342.979L813 449.021C813 453.428 809.428 457 805.021 457L616.979 457C612.572 457 609 453.428 609 449.021Z" fill="#70AD47" fill-rule="evenodd"/><g filter="url(#fx13)" transform="translate(603 330)"><g><path d="M7 14.9788C7 10.5722 10.5722 7 14.9788 7L202.021 7C206.428 7 210 10.5722 210 14.9788L210 121.021C210 125.428 206.428 129 202.021 129L14.9788 129C10.5722 129 7 125.428 7 121.021Z" fill="#222A35" fill-rule="evenodd"/></g></g><path d="M606 344.979C606 340.572 609.572 337 613.979 337L801.021 337C805.428 337 809 340.572 809 344.979L809 451.021C809 455.428 805.428 459 801.021 459L613.979 459C609.572 459 606 455.428 606 451.021Z" fill="#222A35" fill-rule="evenodd"/><g filter="url(#fx14)" transform="translate(603 160)"><g><path d="M7 17.3985C7 11.6556 11.6555 7 17.3984 7L649.602 7C655.344 7 660 11.6556 660 17.3985L660 155.602C660 161.344 655.344 166 649.602 166L17.3984 166C11.6555 166 7 161.344 7 155.602Z" fill="#222A35" fill-rule="evenodd"/></g></g><path d="M606 177.398C606 171.656 610.656 167 616.398 167L1248.6 167C1254.34 167 1259 171.656 1259 177.398L1259 315.602C1259 321.344 1254.34 326 1248.6 326L616.398 326C610.656 326 606 321.344 606 315.602Z" fill="#222A35" fill-rule="evenodd"/><g filter="url(#fx15)" transform="translate(196 469)"><g><path d="M7 22.3037C7 13.8517 13.8517 7 22.3037 7L374.696 7C383.148 7 390 13.8517 390 22.3037L390 225.696C390 234.148 383.148 241 374.696 241L22.3037 241C13.8517 241 7 234.148 7 225.696Z" fill="#222A35" fill-rule="evenodd"/></g></g><path d="M199 491.304C199 482.852 205.852 476 214.304 476L566.696 476C575.148 476 582 482.852 582 491.304L582 694.696C582 703.148 575.148 710 566.696 710L214.304 710C205.852 710 199 703.148 199 694.696Z" fill="#222A35" fill-rule="evenodd"/><g filter="url(#fx16)" transform="translate(603 479)"><g><path d="M7 20.2762C7 12.9439 12.9439 7 20.2762 7L196.724 7C204.056 7 210 12.9439 210 20.2762L210 206.724C210 214.056 204.056 220 196.724 220L20.2762 220C12.9439 220 7 214.056 7 206.724Z" fill="#70AD47" fill-rule="evenodd"/></g></g><path d="M606 499.276C606 491.944 611.944 486 619.276 486L795.724 486C803.056 486 809 491.944 809 499.276L809 685.724C809 693.056 803.056 699 795.724 699L619.276 699C611.944 699 606 693.056 606 685.724Z" fill="#70AD47" fill-rule="evenodd"/><g filter="url(#fx17)" transform="translate(831 330)"><g><path d="M7 31.3288C7 17.8924 17.8923 7 31.3287 7L407.671 7C421.108 7 432 17.8924 432 31.3288L432 354.671C432 368.108 421.108 379 407.671 379L31.3287 379C17.8923 379 7 368.108 7 354.671Z" fill="#222A35" fill-rule="evenodd"/></g></g><path d="M834 361.329C834 347.892 844.892 337 858.329 337L1234.67 337C1248.11 337 1259 347.892 1259 361.329L1259 684.671C1259 698.108 1248.11 709 1234.67 709L858.329 709C844.892 709 834 698.108 834 684.671Z" fill="#222A35" fill-rule="evenodd"/><g filter="url(#fx18)" transform="translate(831 330)"><g><path d="M7 31.3288C7 17.8924 17.8923 7 31.3287 7L407.671 7C421.108 7 432 17.8924 432 31.3288L432 354.671C432 368.108 421.108 379 407.671 379L31.3287 379C17.8923 379 7 368.108 7 354.671Z" fill="url(#fill25)" fill-rule="evenodd"/></g></g><path d="M834 361.329C834 347.892 844.892 337 858.329 337L1234.67 337C1248.11 337 1259 347.892 1259 361.329L1259 684.671C1259 698.108 1248.11 709 1234.67 709L858.329 709C844.892 709 834 698.108 834 684.671Z" fill="url(#fill26)" fill-rule="evenodd"/><path d="M77 395C77 388.373 82.1487 383 88.5 383 94.8513 383 100 388.373 100 395 100 401.627 94.8513 407 88.5 407 82.1487 407 77 401.627 77 395Z" stroke="#70AD47" stroke-width="9.66667" stroke-miterlimit="8" fill="#FFFFFF" fill-rule="evenodd"/><path d="M77 577.5C77 571.149 82.1487 566 88.5 566 94.8513 566 100 571.149 100 577.5 100 583.851 94.8513 589 88.5 589 82.1487 589 77 583.851 77 577.5Z" stroke="#70AD47" stroke-width="9.66667" stroke-miterlimit="8" fill="#FFFFFF" fill-rule="evenodd"/><path d="M78 215.5C78 209.149 83.1487 204 89.5 204 95.8513 204 101 209.149 101 215.5 101 221.851 95.8513 227 89.5 227 83.1487 227 78 221.851 78 215.5Z" stroke="#70AD47" stroke-width="9.66667" stroke-miterlimit="8" fill="#FFFFFF" fill-rule="evenodd"/><text fill="#404040" font-family="Century Gothic,Century Gothic_MSFontService,sans-serif" font-weight="400" font-size="21" transform="translate(33.574 127)">Child abuse</text><text fill="#404040" font-family="Century Gothic,Century Gothic_MSFontService,sans-serif" font-weight="400" font-size="21" transform="translate(55.9874 152)">analysis</text><path d="M32.5001 102.5 159.463 102.5" stroke="#4472C4" stroke-width="0.666667" stroke-miterlimit="8" fill="none" fill-rule="evenodd"/></g></svg>